<?xml version="1.0" encoding="UTF-8" standalone="yes"?>
<svg width="132mm" height="132mm" viewBox="0 0 132 132" version="1.2" baseProfile="tiny-ps" xmlns="http://www.w3.org/2000/svg">
  <title>bimi-svg-tiny-12-ps</title>
  <defs id="defs6525"/>
  <rect id="rect1885" width="132" height="132" fill="#2b1100" fill-rule="evenodd" stroke-width="0.264583"/>
  <g id="layer1" fill="#aa8800">
    <path id="path4797" d="m 95.876659,7.5698925 c 1.922124,2.3418761 3.163059,4.9317645 3.438841,7.2124165 0.194366,4.453096 0.0084,11.858176 -0.574999,16.384886 l -0.07589,0.59062 c 0,0 -1.868697,17.47965 -7.236218,21.876021 -7.734298,6.370134 -25.290734,9.976051 -30.74276,12.047468 -0.414185,0.233615 -0.633618,0.449158 -0.684346,0.842788 -0.02536,0.196814 0.118539,0.572354 0.507309,0.535574 5.096981,0.683972 21.858196,4.735144 30.209423,9.971371 6.322434,4.176379 5.540513,23.016763 4.103846,36.611093 C 116.19444,92.66105 126.45154,63.958297 121.10974,40.080062 117.80569,25.381075 108.85058,13.843349 95.876659,7.5698925 Z M 59.740203,14.461709 c -0.110629,1.77e-4 -0.220914,0.0061 -0.33027,0.01637 -2.138538,0.202445 -16.677221,2.744827 -16.677221,2.744827 L 37.914765,59.08853 c 0,0 15.476741,-0.882082 17.496949,-1.656565 1.606022,-0.54086 3.752614,-2.298765 4.733146,-3.946892 1.470799,-2.472186 3.541768,-12.583337 4.065911,-19.631812 0.634004,-4.920334 0.262786,-12.467098 -0.489458,-17.061791 -0.562622,-1.222575 -2.321714,-2.332347 -3.981111,-2.329752 z m -1.032469,68.034427 c -0.529472,0.0069 -1.044022,0.02133 -1.539034,0.04389 -7.89484,0.164124 -29.220097,0.23803 -29.220097,0.23803 l -5.182434,32.763874 52.102552,-4.9325 c 0,0 3.034722,0.29605 3.575706,-0.92162 0.760761,-1.43293 1.504265,-4.22538 1.707147,-5.79988 0.422658,-1.78973 0.955775,-10.394507 0.888162,-11.360173 0.05918,-1.949725 -0.701222,-4.987671 -1.639455,-6.648569 -1.37883,-1.874355 -12.750457,-3.486295 -20.692547,-3.383052 z" stroke-width="0.387635" stroke="none" fill-rule="evenodd" fill-opacity="1" fill="#aa8800"/>
  </g>
</svg>